<svg id="visual" viewBox="0 0 960 540" width="960" height="540" xmlns="http://www.w3.org/2000/svg" xmlns:xlink="http://www.w3.org/1999/xlink" version="1.1"><rect x="0" y="0" width="960" height="540" fill="#001122"></rect><defs><linearGradient id="grad1_0" x1="43.8%" y1="0%" x2="100%" y2="100%"><stop offset="14.444444444444446%" stop-color="#fbae3c" stop-opacity="1"></stop><stop offset="85.55555555555554%" stop-color="#fbae3c" stop-opacity="1"></stop></linearGradient></defs><defs><linearGradient id="grad1_1" x1="43.8%" y1="0%" x2="100%" y2="100%"><stop offset="14.444444444444446%" stop-color="#fbae3c" stop-opacity="1"></stop><stop offset="85.55555555555554%" stop-color="#98426a" stop-opacity="1"></stop></linearGradient></defs><defs><linearGradient id="grad1_2" x1="43.8%" y1="0%" x2="100%" y2="100%"><stop offset="14.444444444444446%" stop-color="#001122" stop-opacity="1"></stop><stop offset="85.55555555555554%" stop-color="#98426a" stop-opacity="1"></stop></linearGradient></defs><defs><linearGradient id="grad2_0" x1="0%" y1="0%" x2="56.3%" y2="100%"><stop offset="14.444444444444446%" stop-color="#fbae3c" stop-opacity="1"></stop><stop offset="85.55555555555554%" stop-color="#fbae3c" stop-opacity="1"></stop></linearGradient></defs><defs><linearGradient id="grad2_1" x1="0%" y1="0%" x2="56.3%" y2="100%"><stop offset="14.444444444444446%" stop-color="#98426a" stop-opacity="1"></stop><stop offset="85.55555555555554%" stop-color="#fbae3c" stop-opacity="1"></stop></linearGradient></defs><defs><linearGradient id="grad2_2" x1="0%" y1="0%" x2="56.3%" y2="100%"><stop offset="14.444444444444446%" stop-color="#98426a" stop-opacity="1"></stop><stop offset="85.55555555555554%" stop-color="#001122" stop-opacity="1"></stop></linearGradient></defs><g transform="translate(960, 0)"><path d="M0 297C-21.5 279.2 -42.9 261.3 -69.1 257.9C-95.3 254.5 -126.3 265.4 -148.5 257.2C-170.7 249 -184.3 221.5 -198.7 198.7C-213.1 175.9 -228.4 157.6 -236.4 136.5C-244.4 115.4 -245.2 91.3 -254 68.1C-262.9 44.8 -280 22.4 -297 0L0 0Z" fill="#412e55"></path><path d="M0 198C-14.3 186.1 -28.6 174.2 -46.1 171.9C-63.5 169.6 -84.2 177 -99 171.5C-113.8 166 -122.9 147.7 -132.5 132.5C-142.1 117.2 -152.3 105.1 -157.6 91C-163 76.9 -163.4 60.9 -169.4 45.4C-175.3 29.9 -186.6 14.9 -198 0L0 0Z" fill="#e1685b"></path><path d="M0 99C-7.2 93.1 -14.3 87.1 -23 86C-31.8 84.8 -42.1 88.5 -49.5 85.7C-56.9 83 -61.4 73.8 -66.2 66.2C-71 58.6 -76.1 52.5 -78.8 45.5C-81.5 38.5 -81.7 30.4 -84.7 22.7C-87.6 14.9 -93.3 7.5 -99 0L0 0Z" fill="#fbae3c"></path></g><g transform="translate(0, 540)"><path d="M0 -297C29.1 -299.5 58.2 -302 76.1 -284C94 -265.9 100.8 -227.3 123.5 -213.9C146.2 -200.5 184.7 -212.2 199.4 -199.4C214.1 -186.6 205.1 -149.3 219.1 -126.5C233.1 -103.7 270.1 -95.5 286.9 -76.9C303.7 -58.2 300.3 -29.1 297 0L0 0Z" fill="#412e55"></path><path d="M0 -198C19.4 -199.7 38.8 -201.3 50.7 -189.3C62.7 -177.3 67.2 -151.6 82.3 -142.6C97.4 -133.6 123.1 -141.5 132.9 -132.9C142.8 -124.4 136.7 -99.5 146.1 -84.3C155.4 -69.2 180 -63.7 191.3 -51.2C202.5 -38.8 200.2 -19.4 198 0L0 0Z" fill="#e1685b"></path><path d="M0 -99C9.7 -99.8 19.4 -100.7 25.4 -94.7C31.3 -88.6 33.6 -75.8 41.2 -71.3C48.7 -66.8 61.6 -70.7 66.5 -66.5C71.4 -62.2 68.4 -49.8 73 -42.2C77.7 -34.6 90 -31.8 95.6 -25.6C101.2 -19.4 100.1 -9.7 99 0L0 0Z" fill="#fbae3c"></path></g></svg>