<svg id="visual" viewBox="0 0 960 540" width="960" height="540" xmlns="http://www.w3.org/2000/svg"
    xmlns:xlink="http://www.w3.org/1999/xlink" version="1.1">
    <rect x="0" y="0" width="960" height="540" fill="#001122"></rect>
    <defs>
        <linearGradient id="grad1_0" x1="43.8%" y1="0%" x2="100%" y2="100%">
            <stop offset="14.444444444444446%" stop-color="#fbae3c" stop-opacity="1"></stop>
            <stop offset="85.55555555555554%" stop-color="#fbae3c" stop-opacity="1"></stop>
        </linearGradient>
    </defs>
    <defs>
        <linearGradient id="grad1_1" x1="43.8%" y1="0%" x2="100%" y2="100%">
            <stop offset="14.444444444444446%" stop-color="#fbae3c" stop-opacity="1"></stop>
            <stop offset="85.55555555555554%" stop-color="#98426a" stop-opacity="1"></stop>
        </linearGradient>
    </defs>
    <defs>
        <linearGradient id="grad1_2" x1="43.8%" y1="0%" x2="100%" y2="100%">
            <stop offset="14.444444444444446%" stop-color="#001122" stop-opacity="1"></stop>
            <stop offset="85.55555555555554%" stop-color="#98426a" stop-opacity="1"></stop>
        </linearGradient>
    </defs>
    <defs>
        <linearGradient id="grad2_0" x1="0%" y1="0%" x2="56.3%" y2="100%">
            <stop offset="14.444444444444446%" stop-color="#fbae3c" stop-opacity="1"></stop>
            <stop offset="85.55555555555554%" stop-color="#fbae3c" stop-opacity="1"></stop>
        </linearGradient>
    </defs>
    <defs>
        <linearGradient id="grad2_1" x1="0%" y1="0%" x2="56.3%" y2="100%">
            <stop offset="14.444444444444446%" stop-color="#98426a" stop-opacity="1"></stop>
            <stop offset="85.55555555555554%" stop-color="#fbae3c" stop-opacity="1"></stop>
        </linearGradient>
    </defs>
    <defs>
        <linearGradient id="grad2_2" x1="0%" y1="0%" x2="56.3%" y2="100%">
            <stop offset="14.444444444444446%" stop-color="#98426a" stop-opacity="1"></stop>
            <stop offset="85.55555555555554%" stop-color="#001122" stop-opacity="1"></stop>
        </linearGradient>
    </defs>
    <g transform="translate(960, 0)">
        <path
            d="M0 297C-21.5 279.2 -42.9 261.3 -69.1 257.9C-95.3 254.5 -126.3 265.4 -148.5 257.2C-170.7 249 -184.3 221.5 -198.7 198.7C-213.1 175.9 -228.4 157.6 -236.4 136.5C-244.4 115.4 -245.2 91.3 -254 68.1C-262.9 44.8 -280 22.4 -297 0L0 0Z"
            fill="#412e55">
            <animate attributeName="d" begin="0s" dur="2s" repeatCount="indefinite"
                values="
           M0 297C-21.5 279.2 -42.9 261.3 -69.1 257.9C-95.3 254.5 -126.3 265.4 -148.5 257.2C-170.7 249 -184.3 221.5 -198.7 198.7C-213.1 175.9 -228.4 157.6 -236.4 136.5C-244.4 115.4 -245.2 91.3 -254 68.1C-262.9 44.8 -280 22.4 -297 0L0 0Z;
           M0 297C-26.5 274.2 -47.9 256.3 -74.1 252.9C-100.3 249.5 -131.3 260.4 -153.5 252.2C-175.7 249 -189.3 216.5 -203.7 193.7C-218.1 170.9 -233.4 152.6 -241.4 131.5C-249.4 110.4 -250.2 86.3 -254 63.1C-267.9 39.8 -280 17.4 -297 0L0 0Z;
           M0 297C-21.5 279.2 -42.9 261.3 -69.1 257.9C-95.3 254.5 -126.3 265.4 -148.5 257.2C-170.7 249 -184.3 221.5 -198.7 198.7C-213.1 175.9 -228.4 157.6 -236.4 136.5C-244.4 115.4 -245.2 91.3 -254 68.1C-262.9 44.8 -280 22.4 -297 0L0 0Z" />
        </path>
        <path
            d="M0 198C-14.3 186.1 -28.6 174.2 -46.1 171.9C-63.5 169.6 -84.2 177 -99 171.5C-113.8 166 -122.9 147.7 -132.5 132.5C-142.1 117.2 -152.3 105.1 -157.6 91C-163 76.9 -163.4 60.9 -169.4 45.4C-175.3 29.9 -186.6 14.9 -198 0L0 0Z"
            fill="#e1685b">
            <animate attributeName="d" begin="0s" dur="2s" repeatCount="indefinite"
                values="
           M0 198C-14.3 186.1 -28.6 174.2 -46.1 171.9C-63.5 169.6 -84.2 177 -99 171.5C-113.8 166 -122.9 147.7 -132.5 132.5C-142.1 117.2 -152.3 105.1 -157.6 91C-163 76.9 -163.4 60.9 -169.4 45.4C-175.3 29.9 -186.6 14.9 -198 0L0 0Z;
           M0 198C-16.3 184.1 -30.6 172.2 -48.1 169.9C-65.5 167.6 -86.2 177 -99 169.5C-115.8 166 -124.9 145.7 -134.5 130.5C-144.1 115.2 -154.3 103.1 -159.6 91C-163 74.9 -165.4 58.9 -171.4 43.4C-177.3 27.9 -188.6 12.9 -198 0L0 0Z;
           M0 198C-14.3 186.1 -28.6 174.2 -46.1 171.9C-63.5 169.6 -84.2 177 -99 171.5C-113.8 166 -122.9 147.7 -132.5 132.5C-142.1 117.2 -152.3 105.1 -157.6 91C-163 76.9 -163.4 60.9 -169.4 45.4C-175.3 29.9 -186.6 14.9 -198 0L0 0Z" />
        </path>
        <path
            d="M0 99C-7.2 93.1 -14.3 87.1 -23 86C-31.8 84.8 -42.1 88.5 -49.5 85.7C-56.9 83 -61.4 73.8 -66.2 66.2C-71 58.6 -76.1 52.5 -78.8 45.5C-81.5 38.5 -81.7 30.4 -84.7 22.7C-87.6 14.9 -93.3 7.5 -99 0L0 0Z"
            fill="#fbae3c">
            <animate attributeName="d" begin="0s" dur="2s" repeatCount="indefinite"
                values="
            M0 99C-7.2 93.1 -14.3 87.1 -23 86C-31.8 84.8 -42.1 88.5 -49.5 85.7C-56.9 83 -61.4 73.8 -66.2 66.2C-71 58.6 -76.1 52.5 -78.8 45.5C-81.5 38.5 -81.7 30.4 -84.7 22.7C-87.6 14.9 -93.3 7.5 -99 0L0 0Z;
            M0 99C-7.2 92.1 -15.3 86.1 -23 86C-32.8 83.8 -43.1 87.5 -50.5 84.7C-57.9 83 -62.4 72.8 -67.2 65.2C-71 57.6 -77.1 51.5 -79.8 44.5C-82.5 37.5 -82.7 29.4 -85.7 21.7C-88.6 13.9 -94.3 6.5 -98 0L0 0Z;
            M0 99C-7.2 93.1 -14.3 87.1 -23 86C-31.8 84.8 -42.1 88.5 -49.5 85.7C-56.9 83 -61.4 73.8 -66.2 66.2C-71 58.6 -76.1 52.5 -78.8 45.5C-81.5 38.5 -81.7 30.4 -84.7 22.7C-87.6 14.9 -93.3 7.5 -99 0L0 0Z" />
        </path>
    </g>
    <g transform="translate(0, 540)">
        <path
            d="M0 -297C29.1 -299.5 58.2 -302 76.1 -284C94 -265.9 100.8 -227.3 123.5 -213.9C146.2 -200.5 184.7 -212.2 199.4 -199.4C214.1 -186.6 205.1 -149.3 219.1 -126.5C233.1 -103.7 270.1 -95.5 286.9 -76.9C303.7 -58.2 300.3 -29.1 297 0L0 0Z"
            fill="#412e55">
            <animate attributeName="d" begin="0s" dur="2s" repeatCount="indefinite"
                values="
            M0 -297C29.1 -299.5 58.2 -302 76.1 -284C94 -265.9 100.8 -227.3 123.5 -213.9C146.2 -200.5 184.7 -212.2 199.4 -199.4C214.1 -186.6 205.1 -149.3 219.1 -126.5C233.1 -103.7 270.1 -95.5 286.9 -76.9C303.7 -58.2 300.3 -29.1 297 0L0 0Z;
           M0 -297C27.1 -301.5 56.2 -302 74.1 -284C94 -267.9 98.8 -229.3 121.5 -215.9C144.2 -202.5 182.7 -214.2 197.4 -201.4C212.1 -188.6 203.1 -151.3 217.1 -128.5C231.1 -105.7 268.1 -97.5 284.9 -78.9C301.7 -60.2 298.3 -31.1 297 0L0 0Z;
            M0 -297C29.1 -299.5 58.2 -302 76.1 -284C94 -265.9 100.8 -227.3 123.5 -213.9C146.2 -200.5 184.7 -212.2 199.4 -199.4C214.1 -186.6 205.1 -149.3 219.1 -126.5C233.1 -103.7 270.1 -95.5 286.9 -76.9C303.7 -58.2 300.3 -29.1 297 0L0 0Z" />
        </path>
        <path
            d="M0 -198C19.4 -199.7 38.8 -201.3 50.7 -189.3C62.7 -177.3 67.2 -151.6 82.3 -142.6C97.4 -133.6 123.1 -141.5 132.9 -132.9C142.8 -124.4 136.7 -99.5 146.1 -84.3C155.4 -69.2 180 -63.7 191.3 -51.2C202.5 -38.8 200.2 -19.4 198 0L0 0Z"
            fill="#e1685b">
            <animate attributeName="d" begin="0s" dur="2s" repeatCount="indefinite"
                values="
            M0 -198C19.4 -199.7 38.8 -201.3 50.7 -189.3C62.7 -177.3 67.2 -151.6 82.3 -142.6C97.4 -133.6 123.1 -141.5 132.9 -132.9C142.8 -124.4 136.7 -99.5 146.1 -84.3C155.4 -69.2 180 -63.7 191.3 -51.2C202.5 -38.8 200.2 -19.4 198 0L0 0Z;
            M0 -198C18.4 -198.7 37.8 -200.3 49.7 -188.3C62.7 -176.3 66.2 -150.6 81.3 -141.6C97.4 -132.6 122.1 -140.5 131.9 -131.9C142.8 -123.4 135.7 -98.5 145.1 -83.3C155.4 -68.2 179 -62.7 190.3 -50.2C202.5 -37.8 199.2 -18.4 197 0L0 0Z;
            M0 -198C19.4 -199.7 38.8 -201.3 50.7 -189.3C62.7 -177.3 67.2 -151.6 82.3 -142.6C97.4 -133.6 123.1 -141.5 132.9 -132.9C142.8 -124.4 136.7 -99.5 146.1 -84.3C155.4 -69.2 180 -63.7 191.3 -51.2C202.5 -38.8 200.2 -19.4 198 0L0 0Z" />
        </path>
        <path
            d="M0 -99C9.7 -99.8 19.4 -100.7 25.4 -94.7C31.3 -88.6 33.6 -75.8 41.2 -71.3C48.7 -66.8 61.6 -70.7 66.5 -66.5C71.4 -62.2 68.4 -49.8 73 -42.2C77.7 -34.6 90 -31.8 95.6 -25.6C101.2 -19.4 100.1 -9.7 99 0L0 0Z"
            fill="#fbae3c">
            <animate attributeName="d" begin="0s" dur="3s" repeatCount="indefinite"
                values="
            M0 -99C9.7 -99.8 19.4 -100.7 25.4 -94.7C31.3 -88.6 33.6 -75.8 41.2 -71.3C48.7 -66.8 61.6 -70.7 66.5 -66.5C71.4 -62.2 68.4 -49.8 73 -42.2C77.7 -34.6 90 -31.8 95.6 -25.6C101.2 -19.4 100.1 -9.7 99 0L0 0Z;
            M0 -98C9.7 -95.8 19.4 -100.7 28.4 -93.7C31.3 -89.6 36.6 -70.8 41.2 -69.3C48.7 -61.8 59.6 -68.7 66.5 -67.5C71.4 -60.2 67.4 -48.8 72 -41.2C77.7 -33.6 89 -30.8 94.6 -24.6C101.2 -18.4 99.1 -8.7 98 0L0 0Z;
            M0 -99C9.7 -99.8 19.4 -100.7 25.4 -94.7C31.3 -88.6 33.6 -75.8 41.2 -71.3C48.7 -66.8 61.6 -70.7 66.5 -66.5C71.4 -62.2 68.4 -49.8 73 -42.2C77.7 -34.6 90 -31.8 95.6 -25.6C101.2 -19.4 100.1 -9.7 99 0L0 0Z" />
        </path>
    </g>
</svg>